<svg fill="none" height="163" viewBox="0 0 497 163" width="497" xmlns="http://www.w3.org/2000/svg"><path d="m0 12.1152h497v150.1358h-497z" fill="#f3f4f5"/><path d="m38.19 48.1407c0-3.164-4.746-2.688-4.746-4.158 0-.476.322-.714.728-.7.504 0 .882.28.91.896h2.982c-.098-1.96-1.582-3.066-3.85-3.066-2.086 0-3.696 1.036-3.696 2.968-.042 3.43 4.746 2.688 4.76 4.27 0 .462-.378.714-.868.714-.504 0-.938-.252-.994-.994h-2.926c.112 2.114 1.82 3.164 4.018 3.164 2.338 0 3.682-1.358 3.682-3.094zm1.2756 2.996h2.744v-7.854h-2.744zm1.386-8.582c.966 0 1.596-.616 1.596-1.4 0-.798-.63-1.428-1.596-1.428-.98 0-1.61.63-1.61 1.428 0 .784.63 1.4 1.61 1.4zm3.3547 5.6c0 2.254 1.274 2.982 3.01 2.982h1.19v-2.338h-.798c-.462 0-.644-.182-.644-.602v-2.632h1.428v-2.282h-1.428v-1.904h-2.758v1.904h-.966v2.282h.966zm11.6662-2.8c.63 0 1.176.378 1.176 1.078h-2.422c.126-.714.588-1.078 1.246-1.078zm3.808 3.066h-2.926c-.154.322-.448.616-.98.616-.616 0-1.106-.364-1.162-1.274h5.194c.028-.21.042-.434.042-.644 0-2.436-1.638-3.934-3.962-3.934-2.352 0-3.99 1.526-3.99 4.018 0 2.506 1.666 4.032 3.99 4.032 1.96 0 3.43-1.204 3.794-2.814zm9.327-5.138h-2.758v4.214c0 .91-.504 1.442-1.302 1.442-.784 0-1.302-.532-1.302-1.442v-4.214h-2.73v4.564c0 2.072 1.134 3.36 2.954 3.36 1.106 0 1.932-.518 2.38-1.19v1.12h2.758zm4.4877 6.552c0-.798-.63-1.428-1.596-1.428-.98 0-1.61.63-1.61 1.428s.63 1.414 1.61 1.414c.966 0 1.596-.616 1.596-1.414z" fill="#000"/><path d="m30.078 69.4041v9.758h4.69v-1.036h-3.416v-8.722zm13.323 5.908c0-2.422-1.694-3.948-3.878-3.948-2.17 0-3.878 1.526-3.878 3.948 0 2.436 1.652 3.976 3.822 3.976 2.184 0 3.934-1.54 3.934-3.976zm-6.454 0c0-1.932 1.218-2.842 2.562-2.842 1.316 0 2.59.91 2.59 2.842 0 1.946-1.302 2.856-2.632 2.856s-2.52-.91-2.52-2.856zm9.403-.322c0-1.778.924-2.324 2.142-2.324h.336v-1.316c-1.218 0-2.044.532-2.478 1.386v-1.246h-1.274v7.672h1.274zm7.2107-2.548c1.316 0 2.436.826 2.422 2.324h-4.844c.14-1.498 1.176-2.324 2.422-2.324zm3.584 4.354h-1.372c-.28.826-1.008 1.414-2.156 1.414-1.302 0-2.394-.854-2.492-2.408h6.132c.028-.266.042-.49.042-.77 0-2.1-1.456-3.668-3.682-3.668-2.24 0-3.794 1.526-3.794 3.948 0 2.436 1.61 3.976 3.794 3.976 1.904 0 3.136-1.092 3.528-2.492zm12.9096 2.366h1.26v-4.522c0-2.198-1.358-3.29-3.108-3.29-1.176 0-2.268.602-2.716 1.708-.504-1.148-1.554-1.708-2.814-1.708-1.008 0-1.918.434-2.422 1.246v-1.106h-1.274v7.672h1.274v-4.228c0-1.652.882-2.478 2.17-2.478 1.26 0 2.1.798 2.1 2.366v4.34h1.26v-4.228c0-1.652.882-2.478 2.17-2.478 1.26 0 2.1.798 2.1 2.366zm7.0823 0h1.274v-7.672h-1.274zm.658-8.918c.462 0 .84-.378.84-.868s-.378-.868-.84-.868c-.49 0-.868.378-.868.868s.378.868.868.868zm4.0613 2.66v-1.414h-1.274v11.312h1.274v-5.054c.476.784 1.47 1.54 2.87 1.54 2.058 0 3.64-1.61 3.64-3.99 0-2.394-1.582-3.934-3.64-3.934-1.4 0-2.408.728-2.87 1.54zm5.208 2.394c0 1.806-1.19 2.87-2.604 2.87-1.386 0-2.604-1.05-2.604-2.856 0-1.778 1.218-2.842 2.604-2.842 1.414 0 2.604 1.022 2.604 2.828zm8.4949 1.778c-.056-2.744-4.508-1.75-4.508-3.57 0-.616.56-1.064 1.498-1.064 1.022 0 1.61.56 1.666 1.33h1.274c-.084-1.498-1.204-2.408-2.898-2.408-1.708 0-2.814.966-2.814 2.142 0 2.856 4.536 1.862 4.536 3.57 0 .63-.56 1.134-1.568 1.134-1.078 0-1.736-.56-1.806-1.302h-1.316c.084 1.4 1.344 2.38 3.136 2.38 1.694 0 2.8-.952 2.8-2.212zm8.6022-5.586h-1.274v4.214c0 1.652-.882 2.464-2.198 2.464-1.2877 0-2.1417-.798-2.1417-2.352v-4.326h-1.26v4.494c0 2.198 1.386 3.29 3.1497 3.29 1.022 0 1.96-.448 2.45-1.246v1.134h1.274zm13.225 7.672h1.26v-4.522c0-2.198-1.358-3.29-3.108-3.29-1.176 0-2.268.602-2.716 1.708-.504-1.148-1.554-1.708-2.814-1.708-1.008 0-1.918.434-2.422 1.246v-1.106h-1.274v7.672h1.274v-4.228c0-1.652.882-2.478 2.17-2.478 1.26 0 2.1.798 2.1 2.366v4.34h1.26v-4.228c0-1.652.882-2.478 2.17-2.478 1.26 0 2.1.798 2.1 2.366zm6.607-3.864c0 2.38 1.582 3.99 3.64 3.99 1.4 0 2.394-.714 2.856-1.568v1.442h1.288v-10.36h-1.288v4.06c-.532-.882-1.638-1.498-2.842-1.498-2.072 0-3.654 1.54-3.654 3.934zm6.496.014c0 1.806-1.204 2.856-2.604 2.856s-2.59-1.064-2.59-2.87 1.19-2.828 2.59-2.828 2.604 1.064 2.604 2.842zm10.721 0c0-2.422-1.694-3.948-3.878-3.948-2.17 0-3.878 1.526-3.878 3.948 0 2.436 1.652 3.976 3.822 3.976 2.184 0 3.934-1.54 3.934-3.976zm-6.454 0c0-1.932 1.218-2.842 2.562-2.842 1.316 0 2.59.91 2.59 2.842 0 1.946-1.302 2.856-2.632 2.856s-2.52-.91-2.52-2.856zm8.129 3.85h1.274v-10.36h-1.274zm10.725-3.85c0-2.422-1.694-3.948-3.878-3.948-2.17 0-3.878 1.526-3.878 3.948 0 2.436 1.652 3.976 3.822 3.976 2.184 0 3.934-1.54 3.934-3.976zm-6.454 0c0-1.932 1.218-2.842 2.562-2.842 1.316 0 2.59.91 2.59 2.842 0 1.946-1.302 2.856-2.632 2.856s-2.52-.91-2.52-2.856zm9.403-.322c0-1.778.924-2.324 2.142-2.324h.336v-1.316c-1.218 0-2.044.532-2.478 1.386v-1.246h-1.274v7.672h1.274zm13.197 2.086c-.056-2.744-4.508-1.75-4.508-3.57 0-.616.56-1.064 1.498-1.064 1.022 0 1.61.56 1.666 1.33h1.274c-.084-1.498-1.204-2.408-2.898-2.408-1.708 0-2.814.966-2.814 2.142 0 2.856 4.536 1.862 4.536 3.57 0 .63-.56 1.134-1.568 1.134-1.078 0-1.736-.56-1.806-1.302h-1.316c.084 1.4 1.344 2.38 3.136 2.38 1.694 0 2.8-.952 2.8-2.212zm1.799 2.086h1.274v-7.672h-1.274zm.658-8.918c.462 0 .84-.378.84-.868s-.378-.868-.84-.868c-.49 0-.868.378-.868.868s.378.868.868.868zm3.067 6.818c0 1.54.77 2.1 2.128 2.1h1.148v-1.078h-.938c-.784 0-1.064-.266-1.064-1.022v-4.522h2.002v-1.05h-2.002v-1.932h-1.274v1.932h-.994v1.05h.994zm8.076-1.764c0 2.38 1.582 3.99 3.626 3.99 1.414 0 2.408-.728 2.87-1.554v1.428h1.288v-7.672h-1.288v1.4c-.448-.798-1.428-1.526-2.856-1.526-2.058 0-3.64 1.54-3.64 3.934zm6.496.014c0 1.806-1.204 2.856-2.604 2.856s-2.59-1.064-2.59-2.87 1.19-2.828 2.59-2.828 2.604 1.064 2.604 2.842zm14.515 3.85h1.26v-4.522c0-2.198-1.358-3.29-3.108-3.29-1.176 0-2.268.602-2.716 1.708-.504-1.148-1.554-1.708-2.814-1.708-1.008 0-1.918.434-2.422 1.246v-1.106h-1.274v7.672h1.274v-4.228c0-1.652.882-2.478 2.17-2.478 1.26 0 2.1.798 2.1 2.366v4.34h1.26v-4.228c0-1.652.882-2.478 2.17-2.478 1.26 0 2.1.798 2.1 2.366zm6.612-6.72c1.316 0 2.436.826 2.422 2.324h-4.844c.14-1.498 1.176-2.324 2.422-2.324zm3.584 4.354h-1.372c-.28.826-1.008 1.414-2.156 1.414-1.302 0-2.394-.854-2.492-2.408h6.132c.028-.266.042-.49.042-.77 0-2.1-1.456-3.668-3.682-3.668-2.24 0-3.794 1.526-3.794 3.948 0 2.436 1.61 3.976 3.794 3.976 1.904 0 3.136-1.092 3.528-2.492zm2.115.266c0 1.54.77 2.1 2.128 2.1h1.148v-1.078h-.938c-.784 0-1.064-.266-1.064-1.022v-4.522h2.002v-1.05h-2.002v-1.932h-1.274v1.932h-.994v1.05h.994zm3.714 4.102h.854l1.568-3.766h-1.4zm7.138-5.852c0 2.436 1.554 3.976 3.738 3.976 1.904 0 3.15-1.064 3.542-2.59h-1.372c-.28.966-1.036 1.512-2.17 1.512-1.4 0-2.436-.994-2.436-2.898 0-1.876 1.036-2.87 2.436-2.87 1.134 0 1.904.588 2.17 1.512h1.372c-.392-1.61-1.638-2.59-3.542-2.59-2.184 0-3.738 1.54-3.738 3.948zm16.26 0c0-2.422-1.694-3.948-3.878-3.948-2.17 0-3.878 1.526-3.878 3.948 0 2.436 1.652 3.976 3.822 3.976 2.184 0 3.934-1.54 3.934-3.976zm-6.454 0c0-1.932 1.218-2.842 2.562-2.842 1.316 0 2.59.91 2.59 2.842 0 1.946-1.302 2.856-2.632 2.856s-2.52-.91-2.52-2.856zm13.743 3.85h1.26v-4.522c0-2.198-1.358-3.29-3.136-3.29-1.036 0-1.96.434-2.464 1.232v-1.092h-1.274v7.672h1.274v-4.242c0-1.652.896-2.464 2.198-2.464 1.288 0 2.142.798 2.142 2.366zm8.857-2.086c-.056-2.744-4.508-1.75-4.508-3.57 0-.616.56-1.064 1.498-1.064 1.022 0 1.61.56 1.666 1.33h1.274c-.084-1.498-1.204-2.408-2.898-2.408-1.708 0-2.814.966-2.814 2.142 0 2.856 4.536 1.862 4.536 3.57 0 .63-.56 1.134-1.568 1.134-1.078 0-1.736-.56-1.806-1.302h-1.316c.084 1.4 1.344 2.38 3.136 2.38 1.694 0 2.8-.952 2.8-2.212zm5.06-4.634c1.316 0 2.436.826 2.422 2.324h-4.844c.14-1.498 1.176-2.324 2.422-2.324zm3.584 4.354h-1.372c-.28.826-1.008 1.414-2.156 1.414-1.302 0-2.394-.854-2.492-2.408h6.132c.028-.266.042-.49.042-.77 0-2.1-1.456-3.668-3.682-3.668-2.24 0-3.794 1.526-3.794 3.948 0 2.436 1.61 3.976 3.794 3.976 1.904 0 3.136-1.092 3.528-2.492zm1.36-1.484c0 2.436 1.554 3.976 3.738 3.976 1.904 0 3.15-1.064 3.542-2.59h-1.372c-.28.966-1.036 1.512-2.17 1.512-1.4 0-2.436-.994-2.436-2.898 0-1.876 1.036-2.87 2.436-2.87 1.134 0 1.904.588 2.17 1.512h1.372c-.392-1.61-1.638-2.59-3.542-2.59-2.184 0-3.738 1.54-3.738 3.948zm9.26 1.75c0 1.54.77 2.1 2.128 2.1h1.148v-1.078h-.938c-.784 0-1.064-.266-1.064-1.022v-4.522h2.002v-1.05h-2.002v-1.932h-1.274v1.932h-.994v1.05h.994zm8.081-4.62c1.316 0 2.436.826 2.422 2.324h-4.844c.14-1.498 1.176-2.324 2.422-2.324zm3.584 4.354h-1.372c-.28.826-1.008 1.414-2.156 1.414-1.302 0-2.394-.854-2.492-2.408h6.132c.028-.266.042-.49.042-.77 0-2.1-1.456-3.668-3.682-3.668-2.24 0-3.794 1.526-3.794 3.948 0 2.436 1.61 3.976 3.794 3.976 1.904 0 3.136-1.092 3.528-2.492zm2.116.266c0 1.54.77 2.1 2.128 2.1h1.148v-1.078h-.938c-.784 0-1.064-.266-1.064-1.022v-4.522h2.002v-1.05h-2.002v-1.932h-1.274v1.932h-.994v1.05h.994zm11.624-5.572h-1.274v4.214c0 1.652-.882 2.464-2.198 2.464-1.288 0-2.142-.798-2.142-2.352v-4.326h-1.26v4.494c0 2.198 1.386 3.29 3.15 3.29 1.022 0 1.96-.448 2.45-1.246v1.134h1.274zm3.425 3.5c0-1.778.924-2.324 2.142-2.324h.336v-1.316c-1.218 0-2.044.532-2.478 1.386v-1.246h-1.274v7.672h1.274zm7.205.308c0 2.38 1.582 3.99 3.626 3.99 1.414 0 2.408-.728 2.87-1.554v1.428h1.288v-7.672h-1.288v1.4c-.448-.798-1.428-1.526-2.856-1.526-2.058 0-3.64 1.54-3.64 3.934zm6.496.014c0 1.806-1.204 2.856-2.604 2.856s-2.59-1.064-2.59-2.87 1.19-2.828 2.59-2.828 2.604 1.064 2.604 2.842zm2.965-.014c0 2.38 1.582 3.99 3.64 3.99 1.4 0 2.394-.714 2.856-1.568v1.442h1.288v-10.36h-1.288v4.06c-.532-.882-1.638-1.498-2.842-1.498-2.072 0-3.654 1.54-3.654 3.934zm6.496.014c0 1.806-1.204 2.856-2.604 2.856s-2.59-1.064-2.59-2.87 1.19-2.828 2.59-2.828 2.604 1.064 2.604 2.842zm3.441 3.85h1.274v-7.672h-1.274zm.658-8.918c.462 0 .84-.378.84-.868s-.378-.868-.84-.868c-.49 0-.868.378-.868.868s.378.868.868.868zm4.061 2.66v-1.414h-1.274v11.312h1.274v-5.054c.476.784 1.47 1.54 2.87 1.54 2.058 0 3.64-1.61 3.64-3.99 0-2.394-1.582-3.934-3.64-3.934-1.4 0-2.408.728-2.87 1.54zm5.208 2.394c0 1.806-1.19 2.87-2.604 2.87-1.386 0-2.604-1.05-2.604-2.856 0-1.778 1.218-2.842 2.604-2.842 1.414 0 2.604 1.022 2.604 2.828zm2.979 3.864h1.274v-7.672h-1.274zm.658-8.918c.462 0 .84-.378.84-.868s-.378-.868-.84-.868c-.49 0-.868.378-.868.868s.378.868.868.868zm8.303 6.832c-.056-2.744-4.508-1.75-4.508-3.57 0-.616.56-1.064 1.498-1.064 1.022 0 1.61.56 1.666 1.33h1.274c-.084-1.498-1.204-2.408-2.898-2.408-1.708 0-2.814.966-2.814 2.142 0 2.856 4.536 1.862 4.536 3.57 0 .63-.56 1.134-1.568 1.134-1.078 0-1.736-.56-1.806-1.302h-1.316c.084 1.4 1.344 2.38 3.136 2.38 1.694 0 2.8-.952 2.8-2.212zm1.323-1.764c0 2.436 1.554 3.976 3.738 3.976 1.904 0 3.15-1.064 3.542-2.59h-1.372c-.28.966-1.036 1.512-2.17 1.512-1.4 0-2.436-.994-2.436-2.898 0-1.876 1.036-2.87 2.436-2.87 1.134 0 1.904.588 2.17 1.512h1.372c-.392-1.61-1.638-2.59-3.542-2.59-2.184 0-3.738 1.54-3.738 3.948zm8.98 3.85h1.274v-7.672h-1.274zm.658-8.918c.462 0 .84-.378.84-.868s-.378-.868-.84-.868c-.49 0-.868.378-.868.868s.378.868.868.868zm8.401 8.918h1.26v-4.522c0-2.198-1.358-3.29-3.136-3.29-1.036 0-1.96.434-2.464 1.232v-1.092h-1.274v7.672h1.274v-4.242c0-1.652.896-2.464 2.198-2.464 1.288 0 2.142.798 2.142 2.366zm2.865-3.864c0 2.38 1.582 3.99 3.64 3.99 1.4 0 2.394-.742 2.856-1.568v1.61c0 1.638-1.022 2.506-2.38 2.506-1.26 0-2.17-.63-2.45-1.554h-1.26c.252 1.638 1.694 2.66 3.71 2.66 2.254 0 3.668-1.498 3.668-3.612v-7.84h-1.288v1.4c-.448-.826-1.456-1.526-2.856-1.526-2.058 0-3.64 1.54-3.64 3.934zm6.496.014c0 1.806-1.204 2.856-2.604 2.856s-2.59-1.064-2.59-2.87 1.19-2.828 2.59-2.828 2.604 1.064 2.604 2.842zm10.435-2.87c1.316 0 2.436.826 2.422 2.324h-4.844c.14-1.498 1.176-2.324 2.422-2.324zm3.584 4.354h-1.372c-.28.826-1.008 1.414-2.156 1.414-1.302 0-2.394-.854-2.492-2.408h6.132c.028-.266.042-.49.042-.77 0-2.1-1.456-3.668-3.682-3.668-2.24 0-3.794 1.526-3.794 3.948 0 2.436 1.61 3.976 3.794 3.976 1.904 0 3.136-1.092 3.528-2.492zm1.836 2.366h1.274v-10.36h-1.274zm3.445 0h1.274v-7.672h-1.274zm.658-8.918c.462 0 .84-.378.84-.868s-.378-.868-.84-.868c-.49 0-.868.378-.868.868s.378.868.868.868zm3.068 6.818c0 1.54.77 2.1 2.128 2.1h1.148v-1.078h-.938c-.784 0-1.064-.266-1.064-1.022v-4.522h2.002v-1.05h-2.002v-1.932h-1.274v1.932h-.994v1.05h.994zm6.065 1.316c0-.49-.378-.868-.84-.868-.49 0-.868.378-.868.868s.378.868.868.868c.462 0 .84-.378.84-.868zm6.7-4.34v-3.584h1.876c1.456 0 2.072.672 2.072 1.806 0 1.092-.616 1.778-2.072 1.778zm5.25-1.778c0-1.596-1.078-2.856-3.374-2.856h-3.15v9.758h1.274v-4.074h1.876c2.422 0 3.374-1.344 3.374-2.828zm8.864 3.052c0-2.422-1.694-3.948-3.878-3.948-2.17 0-3.878 1.526-3.878 3.948 0 2.436 1.652 3.976 3.822 3.976 2.184 0 3.934-1.54 3.934-3.976zm-6.454 0c0-1.932 1.218-2.842 2.562-2.842 1.316 0 2.59.91 2.59 2.842 0 1.946-1.302 2.856-2.632 2.856s-2.52-.91-2.52-2.856zm9.403-.322c0-1.778.924-2.324 2.142-2.324h.336v-1.316c-1.218 0-2.044.532-2.478 1.386v-1.246h-1.274v7.672h1.274zm4.228 2.072c0 1.54.77 2.1 2.128 2.1h1.148v-1.078h-.938c-.784 0-1.064-.266-1.064-1.022v-4.522h2.002v-1.05h-2.002v-1.932h-1.274v1.932h-.994v1.05h.994zm4.344-1.764c0 2.38 1.582 3.99 3.626 3.99 1.414 0 2.408-.728 2.87-1.554v1.428h1.288v-7.672h-1.288v1.4c-.448-.798-1.428-1.526-2.856-1.526-2.058 0-3.64 1.54-3.64 3.934zm6.496.014c0 1.806-1.204 2.856-2.604 2.856s-2.59-1.064-2.59-2.87 1.19-2.828 2.59-2.828 2.604 1.064 2.604 2.842zm-423.977 17.178 3.01 7.6719h1.484l3.01-7.6719h-1.358l-2.38 6.496-2.394-6.496zm12.0197.952c1.316 0 2.436.826 2.422 2.324h-4.844c.14-1.498 1.176-2.324 2.422-2.324zm3.584 4.354h-1.372c-.28.826-1.008 1.414-2.156 1.414-1.302 0-2.394-.854-2.492-2.408h6.132c.028-.266.042-.49.042-.77 0-2.1-1.456-3.668-3.682-3.668-2.24 0-3.794 1.526-3.794 3.948 0 2.436 1.61 3.9759 3.794 3.9759 1.904 0 3.136-1.0919 3.528-2.4919zm7.4496 2.3659h1.26v-4.5219c0-2.198-1.358-3.29-3.136-3.29-1.036 0-1.96.434-2.464 1.232v-1.092h-1.274v7.6719h1.274v-4.2419c0-1.652.896-2.464 2.198-2.464 1.288 0 2.142.798 2.142 2.366zm6.6031-6.7199c1.316 0 2.436.826 2.422 2.324h-4.844c.14-1.498 1.176-2.324 2.422-2.324zm3.584 4.354h-1.372c-.28.826-1.008 1.414-2.156 1.414-1.302 0-2.394-.854-2.492-2.408h6.132c.028-.266.042-.49.042-.77 0-2.1-1.456-3.668-3.682-3.668-2.24 0-3.794 1.526-3.794 3.948 0 2.436 1.61 3.9759 3.794 3.9759 1.904 0 3.136-1.0919 3.528-2.4919zm7.4496 2.3659h1.26v-4.5219c0-2.198-1.358-3.29-3.136-3.29-1.036 0-1.96.434-2.464 1.232v-1.092h-1.274v7.6719h1.274v-4.2419c0-1.652.896-2.464 2.198-2.464 1.288 0 2.142.798 2.142 2.366zm2.8651-3.8639c0 2.38 1.582 3.9899 3.626 3.9899 1.414 0 2.408-.7279 2.87-1.5539v1.4279h1.288v-7.6719h-1.288v1.4c-.448-.798-1.428-1.526-2.856-1.526-2.058 0-3.64 1.54-3.64 3.934zm6.496.014c0 1.806-1.204 2.856-2.604 2.856s-2.59-1.064-2.59-2.87 1.19-2.828 2.59-2.828 2.604 1.064 2.604 2.842zm3.7209 1.75c0 1.54.77 2.0999 2.128 2.0999h1.148v-1.0779h-.938c-.784 0-1.064-.266-1.064-1.022v-4.522h2.002v-1.05h-2.002v-1.932h-1.274v1.932h-.994v1.05h.994zm4.8196 2.0999h1.274v-7.6719h-1.274zm.658-8.9179c.462 0 .84-.378.84-.868s-.378-.868-.84-.868c-.49 0-.868.378-.868.868s.378.868.868.868zm8.3034 6.832c-.056-2.744-4.508-1.75-4.508-3.57 0-.616.56-1.064 1.498-1.064 1.022 0 1.61.56 1.666 1.33h1.274c-.084-1.498-1.204-2.408-2.898-2.408-1.708 0-2.814.966-2.814 2.142 0 2.856 4.536 1.862 4.536 3.57 0 .63-.56 1.134-1.568 1.134-1.078 0-1.736-.56-1.806-1.302h-1.316c.084 1.4 1.344 2.3799 3.136 2.3799 1.694 0 2.8-.9519 2.8-2.2119zm.6924 4.0879h.854l1.568-3.7659h-1.4zm7.6136-2.002h1.274v-10.3599h-1.274zm10.726-3.8499c0-2.422-1.694-3.948-3.878-3.948-2.17 0-3.878 1.526-3.878 3.948 0 2.436 1.652 3.9759 3.822 3.9759 2.184 0 3.934-1.5399 3.934-3.9759zm-6.454 0c0-1.932 1.218-2.842 2.562-2.842 1.316 0 2.59.91 2.59 2.842 0 1.946-1.302 2.856-2.632 2.856s-2.52-.91-2.52-2.856zm9.403-2.394v-4.116h-1.274v10.3599h1.274v-1.4139c.476.84 1.47 1.5399 2.87 1.5399 2.058 0 3.64-1.6099 3.64-3.9899 0-2.394-1.568-3.934-3.64-3.934-1.358 0-2.38.7-2.87 1.554zm5.208 2.38c0 1.806-1.19 2.87-2.604 2.87-1.386 0-2.604-1.05-2.604-2.856 0-1.778 1.218-2.842 2.604-2.842 1.414 0 2.604 1.022 2.604 2.828zm10.259.014c0-2.422-1.694-3.948-3.878-3.948-2.17 0-3.878 1.526-3.878 3.948 0 2.436 1.652 3.9759 3.822 3.9759 2.184 0 3.934-1.5399 3.934-3.9759zm-6.454 0c0-1.932 1.218-2.842 2.562-2.842 1.316 0 2.59.91 2.59 2.842 0 1.946-1.302 2.856-2.632 2.856s-2.52-.91-2.52-2.856zm9.403-.322c0-1.778.924-2.324 2.142-2.324h.336v-1.316c-1.218 0-2.044.532-2.478 1.386v-1.246h-1.274v7.6719h1.274zm4.228 2.072c0 1.54.77 2.0999 2.128 2.0999h1.148v-1.0779h-.938c-.784 0-1.064-.266-1.064-1.022v-4.522h2.002v-1.05h-2.002v-1.932h-1.274v1.932h-.994v1.05h.994zm4.82 2.0999h1.274v-7.6719h-1.274zm.658-8.9179c.462 0 .84-.378.84-.868s-.378-.868-.84-.868c-.49 0-.868.378-.868.868s.378.868.868.868zm8.303 6.832c-.056-2.744-4.508-1.75-4.508-3.57 0-.616.56-1.064 1.498-1.064 1.022 0 1.61.56 1.666 1.33h1.274c-.084-1.498-1.204-2.408-2.898-2.408-1.708 0-2.814.966-2.814 2.142 0 2.856 4.536 1.862 4.536 3.57 0 .63-.56 1.134-1.568 1.134-1.078 0-1.736-.56-1.806-1.302h-1.316c.084 1.4 1.344 2.3799 3.136 2.3799 1.694 0 2.8-.9519 2.8-2.2119zm6.805-4.172v-1.414h-1.274v11.3119h1.274v-5.0539c.476.784 1.47 1.5399 2.87 1.5399 2.058 0 3.64-1.6099 3.64-3.9899 0-2.394-1.582-3.934-3.64-3.934-1.4 0-2.408.728-2.87 1.54zm5.208 2.394c0 1.806-1.19 2.87-2.604 2.87-1.386 0-2.604-1.05-2.604-2.856 0-1.778 1.218-2.842 2.604-2.842 1.414 0 2.604 1.022 2.604 2.828zm4.253-.308c0-1.778.924-2.324 2.142-2.324h.336v-1.316c-1.218 0-2.044.532-2.478 1.386v-1.246h-1.274v7.6719h1.274zm11.229.322c0-2.422-1.694-3.948-3.878-3.948-2.17 0-3.878 1.526-3.878 3.948 0 2.436 1.652 3.9759 3.822 3.9759 2.184 0 3.934-1.5399 3.934-3.9759zm-6.454 0c0-1.932 1.218-2.842 2.562-2.842 1.316 0 2.59.91 2.59 2.842 0 1.946-1.302 2.856-2.632 2.856s-2.52-.91-2.52-2.856zm8.129 3.8499h1.274v-7.6719h-1.274zm.658-8.9179c.462 0 .84-.378.84-.868s-.378-.868-.84-.868c-.49 0-.868.378-.868.868s.378.868.868.868zm8.401 8.9179h1.26v-4.5219c0-2.198-1.358-3.29-3.136-3.29-1.036 0-1.96.434-2.464 1.232v-1.092h-1.274v7.6719h1.274v-4.2419c0-1.652.896-2.464 2.198-2.464 1.288 0 2.142.798 2.142 2.366zm7.76-8.9179c.476 0 .854-.378.854-.868s-.378-.868-.854-.868-.854.378-.854.868.378.868.854.868zm-.644 1.246v9.3099c0 .672-.266.924-.966.924h-.532v1.078h.742c1.302 0 2.03-.588 2.03-1.974v-9.3379zm10.234 0h-1.274v4.214c0 1.652-.882 2.464-2.198 2.464-1.288 0-2.142-.798-2.142-2.352v-4.326h-1.26v4.494c0 2.198 1.386 3.2899 3.15 3.2899 1.022 0 1.96-.4479 2.45-1.2459v1.1339h1.274zm7.667 5.586c-.056-2.744-4.508-1.75-4.508-3.57 0-.616.56-1.064 1.498-1.064 1.022 0 1.61.56 1.666 1.33h1.274c-.084-1.498-1.204-2.408-2.898-2.408-1.708 0-2.814.966-2.814 2.142 0 2.856 4.536 1.862 4.536 3.57 0 .63-.56 1.134-1.568 1.134-1.078 0-1.736-.56-1.806-1.302h-1.316c.084 1.4 1.344 2.3799 3.136 2.3799 1.694 0 2.8-.9519 2.8-2.2119zm2.079-.014c0 1.54.77 2.0999 2.128 2.0999h1.148v-1.0779h-.938c-.784 0-1.064-.266-1.064-1.022v-4.522h2.002v-1.05h-2.002v-1.932h-1.274v1.932h-.994v1.05h.994zm12.099-1.75c0-2.422-1.694-3.948-3.878-3.948-2.17 0-3.878 1.526-3.878 3.948 0 2.436 1.652 3.9759 3.822 3.9759 2.184 0 3.934-1.5399 3.934-3.9759zm-6.454 0c0-1.932 1.218-2.842 2.562-2.842 1.316 0 2.59.91 2.59 2.842 0 1.946-1.302 2.856-2.632 2.856s-2.52-.91-2.52-2.856zm7.023 5.8519h.854l1.568-3.7659h-1.4zm7.614-2.002h1.274v-7.6719h-1.274zm.658-8.9179c.462 0 .84-.378.84-.868s-.378-.868-.84-.868c-.49 0-.868.378-.868.868s.378.868.868.868zm8.402 8.9179h1.26v-4.5219c0-2.198-1.358-3.29-3.136-3.29-1.036 0-1.96.434-2.464 1.232v-1.092h-1.274v7.6719h1.274v-4.2419c0-1.652.896-2.464 2.198-2.464 1.288 0 2.142.798 2.142 2.366zm6.163-7.6719 3.01 7.6719h1.484l3.01-7.6719h-1.358l-2.38 6.496-2.394-6.496zm12.02.952c1.316 0 2.436.826 2.422 2.324h-4.844c.14-1.498 1.176-2.324 2.422-2.324zm3.584 4.354h-1.372c-.28.826-1.008 1.414-2.156 1.414-1.302 0-2.394-.854-2.492-2.408h6.132c.028-.266.042-.49.042-.77 0-2.1-1.456-3.668-3.682-3.668-2.24 0-3.794 1.526-3.794 3.948 0 2.436 1.61 3.9759 3.794 3.9759 1.904 0 3.136-1.0919 3.528-2.4919zm1.835 2.3659h1.274v-10.3599h-1.274zm10.44-6.7199c1.316 0 2.436.826 2.422 2.324h-4.844c.14-1.498 1.176-2.324 2.422-2.324zm3.584 4.354h-1.372c-.28.826-1.008 1.414-2.156 1.414-1.302 0-2.394-.854-2.492-2.408h6.132c.028-.266.042-.49.042-.77 0-2.1-1.456-3.668-3.682-3.668-2.24 0-3.794 1.526-3.794 3.948 0 2.436 1.61 3.9759 3.794 3.9759 1.904 0 3.136-1.0919 3.528-2.4919zm1.836 2.3659h1.274v-10.3599h-1.274zm6.707-6.7199c1.316 0 2.436.826 2.422 2.324h-4.844c.14-1.498 1.176-2.324 2.422-2.324zm3.584 4.354h-1.372c-.28.826-1.008 1.414-2.156 1.414-1.302 0-2.394-.854-2.492-2.408h6.132c.028-.266.042-.49.042-.77 0-2.1-1.456-3.668-3.682-3.668-2.24 0-3.794 1.526-3.794 3.948 0 2.436 1.61 3.9759 3.794 3.9759 1.904 0 3.136-1.0919 3.528-2.4919zm12.91 2.3659h1.26v-4.5219c0-2.198-1.358-3.29-3.108-3.29-1.176 0-2.268.602-2.716 1.708-.504-1.148-1.554-1.708-2.814-1.708-1.008 0-1.918.434-2.422 1.246v-1.106h-1.274v7.6719h1.274v-4.2279c0-1.652.882-2.478 2.17-2.478 1.26 0 2.1.798 2.1 2.366v4.3399h1.26v-4.2279c0-1.652.882-2.478 2.17-2.478 1.26 0 2.1.798 2.1 2.366zm6.612-6.7199c1.316 0 2.436.826 2.422 2.324h-4.844c.14-1.498 1.176-2.324 2.422-2.324zm3.584 4.354h-1.372c-.28.826-1.008 1.414-2.156 1.414-1.302 0-2.394-.854-2.492-2.408h6.132c.028-.266.042-.49.042-.77 0-2.1-1.456-3.668-3.682-3.668-2.24 0-3.794 1.526-3.794 3.948 0 2.436 1.61 3.9759 3.794 3.9759 1.904 0 3.136-1.0919 3.528-2.4919zm7.449 2.3659h1.26v-4.5219c0-2.198-1.358-3.29-3.136-3.29-1.036 0-1.96.434-2.464 1.232v-1.092h-1.274v7.6719h1.274v-4.2419c0-1.652.896-2.464 2.198-2.464 1.288 0 2.142.798 2.142 2.366zm3.621-2.0999c0 1.54.77 2.0999 2.128 2.0999h1.148v-1.0779h-.938c-.784 0-1.064-.266-1.064-1.022v-4.522h2.002v-1.05h-2.002v-1.932h-1.274v1.932h-.994v1.05h.994zm11.624-5.572h-1.274v4.214c0 1.652-.882 2.464-2.198 2.464-1.288 0-2.142-.798-2.142-2.352v-4.326h-1.26v4.494c0 2.198 1.386 3.2899 3.15 3.2899 1.022 0 1.96-.4479 2.45-1.2459v1.1339h1.274zm13.225 7.6719h1.26v-4.5219c0-2.198-1.358-3.29-3.108-3.29-1.176 0-2.268.602-2.716 1.708-.504-1.148-1.554-1.708-2.814-1.708-1.008 0-1.918.434-2.422 1.246v-1.106h-1.274v7.6719h1.274v-4.2279c0-1.652.882-2.478 2.17-2.478 1.26 0 2.1.798 2.1 2.366v4.3399h1.26v-4.2279c0-1.652.882-2.478 2.17-2.478 1.26 0 2.1.798 2.1 2.366zm4.596-.7839c0-.49-.378-.868-.84-.868-.49 0-.868.378-.868.868s.378.8679.868.8679c.462 0 .84-.3779.84-.8679zm4.95-4.102c0 2.926 2.142 4.9699 4.872 4.9699 2.114 0 3.794-1.0499 4.522-2.9259h-1.526c-.532 1.162-1.568 1.82-2.996 1.82-2.044 0-3.57-1.484-3.57-3.864 0-2.394 1.526-3.878 3.57-3.878 1.428 0 2.464.658 2.996 1.834h1.526c-.728-1.89-2.408-2.954-4.522-2.954-2.73 0-4.872 2.072-4.872 4.998zm18.57 1.036c0-2.422-1.694-3.948-3.878-3.948-2.17 0-3.878 1.526-3.878 3.948 0 2.436 1.652 3.9759 3.822 3.9759 2.184 0 3.934-1.5399 3.934-3.9759zm-6.454 0c0-1.932 1.218-2.842 2.562-2.842 1.316 0 2.59.91 2.59 2.842 0 1.946-1.302 2.856-2.632 2.856s-2.52-.91-2.52-2.856zm13.743 3.8499h1.26v-4.5219c0-2.198-1.358-3.29-3.136-3.29-1.036 0-1.96.434-2.464 1.232v-1.092h-1.274v7.6719h1.274v-4.2419c0-1.652.896-2.464 2.198-2.464 1.288 0 2.142.798 2.142 2.366zm2.431-7.6719 3.01 7.6719h1.484l3.01-7.6719h-1.358l-2.38 6.496-2.394-6.496zm8.282 3.808c0 2.38 1.582 3.9899 3.626 3.9899 1.414 0 2.408-.7279 2.87-1.5539v1.4279h1.288v-7.6719h-1.288v1.4c-.448-.798-1.428-1.526-2.856-1.526-2.058 0-3.64 1.54-3.64 3.934zm6.496.014c0 1.806-1.204 2.856-2.604 2.856s-2.59-1.064-2.59-2.87 1.19-2.828 2.59-2.828 2.604 1.064 2.604 2.842zm3.441 3.8499h1.274v-10.3599h-1.274zm3.445 0h1.274v-10.3599h-1.274zm3.445 0h1.274v-7.6719h-1.274zm.658-8.9179c.462 0 .84-.378.84-.868s-.378-.868-.84-.868c-.49 0-.868.378-.868.868s.378.868.868.868zm8.304 6.832c-.056-2.744-4.508-1.75-4.508-3.57 0-.616.56-1.064 1.498-1.064 1.022 0 1.61.56 1.666 1.33h1.274c-.084-1.498-1.204-2.408-2.898-2.408-1.708 0-2.814.966-2.814 2.142 0 2.856 4.536 1.862 4.536 3.57 0 .63-.56 1.134-1.568 1.134-1.078 0-1.736-.56-1.806-1.302h-1.316c.084 1.4 1.344 2.3799 3.136 2.3799 1.694 0 2.8-.9519 2.8-2.2119zm3.044 1.302c0-.49-.378-.868-.84-.868-.49 0-.868.378-.868.868s.378.8679.868.8679c.462 0 .84-.3779.84-.8679z" fill="#000"/><g fill="#ffa900"><path d="m39.8243 118.211 2.4302 7.474h7.8643l-6.3624 4.62 2.4302 7.474-6.3623-4.62-6.3624 4.62 2.4302-7.474-6.3623-4.62h7.8643z"/><path d="m67.6563 118.211 2.4302 7.474h7.8643l-6.3623 4.62 2.4302 7.474-6.3624-4.62-6.3623 4.62 2.4302-7.474-6.3624-4.62h7.8643z"/><path d="m95.4922 118.211 2.4303 7.474h7.8645l-6.3626 4.62 2.4306 7.474-6.3628-4.62-6.3623 4.62 2.4302-7.474-6.3624-4.62h7.8643z"/><path d="m120.234 118.211 2.431 7.474h7.864l-6.362 4.62 2.43 7.474-6.363-4.62-6.362 4.62 2.43-7.474-6.362-4.62h7.864z"/><path d="m150.387 118.211 2.43 7.474h7.864l-6.362 4.62 2.43 7.474-6.362-4.62-6.363 4.62 2.431-7.474-6.363-4.62h7.865z"/></g><path d="m437 0h51v51.0463h-51z" fill="#ff7701"/><path d="m466.053 36.0312c6.315-1.5803 9.947-5.8474 9.947-12.0108 0-4.7412-1.895-9.0082-6-9.0082-2.526 0-4.579 2.0545-4.579 4.425 0 5.8475 6.316 3.4769 6.316 8.3761 0 3.7929-2.369 5.6893-5.684 6.3215zm-16.264 0c6.316-1.5803 9.79-5.8474 9.79-12.0108 0-4.7412-1.737-9.0082-6-9.0082-2.526 0-4.579 2.0545-4.579 4.425 0 5.8475 6.316 3.4769 6.316 8.3761 0 3.7929-2.369 5.6893-5.527 6.3215z" fill="#fff"/></svg>